<svg width="193" height="119" viewBox="0 0 193 119" fill="none" xmlns="http://www.w3.org/2000/svg">
<path fill-rule="evenodd" clip-rule="evenodd" d="M7.18981 107.417C6.91604 107.515 6.39891 107.417 6.17584 107.58C5.94859 108.521 5.88334 109.498 5.98321 110.464C5.98321 112.415 5.64859 114.855 6.06432 116.633C6.87741 116.967 7.73863 117.147 8.60939 117.164C12.1988 117.728 14.3992 114.183 13.3548 110.507C12.6247 107.959 10.3128 107.395 7.16954 107.417H7.18981ZM181.522 100.673C180.352 103.22 179.385 105.868 178.632 108.588H184.401L181.512 100.716L181.522 100.673ZM139.452 100.673C138.283 103.22 137.316 105.868 136.562 108.588H142.332L139.442 100.716L139.452 100.673ZM26.2829 100.673L25.2689 103.308L23.4438 108.621H29.2132C28.7206 106.776 28.0724 104.983 27.2766 103.264L26.3235 100.662L26.2829 100.673ZM8.10241 97.507L6.24682 97.9515L6.1353 103.796C6.08742 104.609 6.11119 105.426 6.20629 106.235C7.10139 106.426 8.02609 106.385 8.90342 106.116C11.3268 105.53 12.4523 104.739 12.8478 101.931C12.9558 101.049 12.7996 100.153 12.4016 99.3719C11.6513 98.0491 10.181 97.4311 8.15309 97.4636L8.10241 97.507ZM77.3464 96.7805H82.3554L85.4683 100.836L94.5332 112.047V111.971L94.6447 108.48C94.6447 105.65 95.1213 100.716 93.9248 99.0575C93.4717 98.4997 92.8583 98.1184 92.1808 97.9732C91.7651 97.8756 90.9336 98.0491 90.7714 97.6913C90.3354 96.6721 92.049 96.8455 92.6269 96.8347L97.2203 96.7589C97.8969 96.7099 98.5764 96.7352 99.2482 96.8347L99.4003 97.0407V97.4853C99.3835 97.5412 99.3545 97.592 99.3157 97.6335C99.2769 97.675 99.2295 97.7059 99.1772 97.7238C97.9199 98.331 97.0073 97.8106 96.3279 99.2309C95.6486 100.651 95.9122 103.026 95.9122 104.837L95.8007 113.847C95.5979 115.191 95.9427 116.687 95.6892 117.902L95.4661 118.14C94.4521 118.14 92.3532 114.888 91.7448 114.118C89.3113 110.865 86.4924 107.829 84.0386 104.576C83.4508 103.701 82.8178 102.861 82.1425 102.061V105.628C82.0692 108.164 82.1845 110.702 82.4872 113.218C82.4934 114.097 82.6622 114.967 82.9841 115.777C83.4085 116.368 84.0099 116.785 84.6876 116.958C85.3669 117.11 85.8131 116.959 86.2085 117.36C86.2274 117.486 86.2169 117.615 86.178 117.736C86.1391 117.857 86.073 117.966 85.9855 118.054H79.9016C79.0741 118.177 78.2311 118.095 77.4377 117.815C77.4377 116.622 78.3705 117.11 79.2223 116.883C79.5387 116.827 79.8368 116.686 80.0886 116.474C80.3404 116.262 80.5377 115.984 80.6621 115.668C81.1285 114.389 81.1285 110.442 80.8852 108.729L80.8142 104.392C80.6215 103.026 80.8142 101.725 80.439 100.695C80.0125 99.5293 79.2393 98.5464 78.2387 97.8973C77.8009 97.7617 77.371 97.5987 76.951 97.4094C76.951 96.8347 77.0321 96.7805 77.3667 96.5962L77.3464 96.7805ZM64.0229 106.441C65.6554 106.441 67.5717 106.604 68.3525 105.585C68.9203 104.847 69.113 103.752 69.6403 102.95C69.8778 102.911 70.1204 102.969 70.3196 103.113C70.4466 104.33 70.4091 105.561 70.2081 106.767C70.2081 108.299 70.2081 109.828 70.2081 111.353L69.985 111.591H69.6098C69.1029 111.31 69.0927 110.008 68.8088 109.477C68.1801 108.317 67.3385 108.078 65.848 107.807C65.4931 107.742 64.3271 107.482 64.0229 107.807V111.581C64.2257 113.023 63.8505 114.573 64.2865 115.722C65.0571 117.739 68.9 117.674 71.0801 116.98C72.4764 116.607 73.7176 115.749 74.6087 114.541C75.0042 113.944 75.2069 112.958 75.7443 112.513H76.2006L76.3527 112.6C76.2579 114.61 75.8854 116.594 75.2475 118.487L65.6756 118.368L62.4512 118.249C61.1736 118.043 58.6387 118.607 57.7768 118.01V117.479L58.0404 117.24C58.9936 116.98 59.9061 117.175 60.3928 116.471C61.0114 115.582 60.9607 113.695 60.9607 112.209V107.374C61.1478 105.906 61.1478 104.418 60.9607 102.95C60.768 101.67 61.1939 99.914 60.697 98.8948C60.2813 98.0491 59.0139 98.0383 58.2635 97.5503C58.2172 97.4252 58.1995 97.2901 58.2119 97.1563C58.2242 97.0224 58.2662 96.8935 58.3345 96.7805C59.52 96.5951 60.726 96.6207 61.9037 96.8564L69.9546 96.9323C70.9077 96.9323 73.8381 96.7046 74.4769 97.0191C74.6695 97.9407 75.6328 101.736 75.1968 102.538H75.1258H74.7811C74.4262 102.343 74.3147 101.898 74.1017 101.562C73.5971 100.728 72.9823 99.9752 72.2766 99.3285C70.3095 97.7022 67.3892 97.8973 64.2662 98.2443C64.0323 100.983 63.9578 103.736 64.0431 106.485L64.0229 106.441ZM120.207 96.5311C122.154 96.5311 123.959 96.5311 125.865 96.5311C126.722 96.3952 127.597 96.4921 128.41 96.8131C128.429 96.9368 128.422 97.0636 128.389 97.1839C128.355 97.3041 128.297 97.4146 128.217 97.507C127.325 97.7238 126.433 97.8431 126.017 98.5913C125.48 99.5237 125.784 101.063 125.601 102.364C125.387 104.429 125.387 106.513 125.601 108.577L125.713 112.394C125.895 113.641 125.622 115.029 126.017 116.048C126.514 117.327 127.7 116.731 128.451 117.511V117.999C128.434 118.055 128.405 118.106 128.366 118.148C128.327 118.189 128.28 118.22 128.227 118.238H122.458C121.626 118.238 120.795 118.39 120.298 117.999V117.468C120.315 117.412 120.344 117.361 120.383 117.32C120.422 117.278 120.469 117.247 120.521 117.23C121.201 116.958 121.89 117.23 122.225 116.579C122.762 115.592 122.336 113.901 122.529 112.556V106.181C122.529 105.277 122.529 104.37 122.529 103.46C122.275 101.725 122.691 99.8815 122.113 98.5478C121.768 97.7672 120.684 97.8106 120.085 97.3335V96.8022L120.278 96.5636L120.207 96.5311ZM40.0222 96.5311L45.2644 96.7372H49.3203L49.5129 96.9757V97.4636C49.4962 97.5195 49.4672 97.5703 49.4284 97.6118C49.3896 97.6532 49.3421 97.6842 49.2899 97.7022C48.0325 98.0383 47.0693 97.8973 46.4812 98.884C45.893 99.8706 46.3189 101.161 46.1364 102.451C46.1364 104.143 46.1128 105.834 46.0655 107.525V111.863C46.2682 113.283 45.812 114.963 46.3696 115.961C46.9273 116.958 48.6511 117.121 50.2024 116.85C51.282 116.672 52.3117 116.242 53.2178 115.59C54.124 114.938 54.8844 114.08 55.4447 113.077C55.8503 112.47 56.0733 111.461 56.6209 111.006C56.8488 110.966 57.0822 111.025 57.2698 111.169C57.2326 113.56 56.8915 115.934 56.2558 118.227L44.1795 118.151C42.7498 118.151 40.4683 118.726 39.4746 117.989C39.4746 116.904 40.4886 117.295 41.2187 117.056C41.5404 116.955 41.835 116.773 42.0782 116.526C42.3215 116.279 42.5065 115.974 42.6179 115.636C43.0337 114.497 42.7193 113.023 42.9221 111.581C42.9221 108.877 42.9221 106.17 42.9221 103.46C42.9221 101.801 42.9221 99.9574 42.3543 98.9165C41.7865 97.8756 40.5697 98.0708 39.6166 97.3335V96.8022C39.7078 96.607 39.789 96.6179 39.9613 96.5203L40.0222 96.5311ZM8.47757 96.4119C9.6322 96.3301 10.7918 96.3846 11.9352 96.5745C14.2572 97.1491 16.64 98.8406 15.9911 102.343C15.9064 102.882 15.7385 103.402 15.4942 103.882C14.9024 104.863 14.057 105.639 13.0607 106.116L12.0467 106.604C14.6324 107.07 17.8973 109.857 16.8327 113.706C16.5382 114.634 16.0728 115.489 15.4638 116.221C13.4359 118.878 9.86671 118.205 5.78041 118.205C4.37099 118.205 0.710554 118.574 0.0109141 117.999C-0.00879937 117.871 -0.00174179 117.739 0.0315537 117.613C0.0648492 117.488 0.123569 117.371 0.203571 117.273C0.92349 117.197 1.97802 117.013 2.33291 116.503C3.07311 115.419 2.69795 113.608 2.9413 111.96C2.9413 110.514 2.9413 109.094 2.9413 107.699C3.26577 105.465 3.1745 99.9899 2.485 98.4394C2.18081 97.7564 1.02489 97.8106 0.457063 97.3552C0.457063 96.1733 1.57244 96.542 2.58641 96.542C3.96534 96.622 5.34784 96.5967 6.72339 96.4661L8.42686 96.3902L8.47757 96.4119ZM182.019 96.2926C182.358 96.2547 182.701 96.2804 183.033 96.3685L184.513 99.9357L187.362 107.97C188.082 109.954 188.68 111.96 189.39 113.858C189.63 114.713 189.971 115.533 190.404 116.297C191.063 117.208 192.31 116.937 192.99 117.642C193.009 117.77 193.001 117.902 192.968 118.027C192.935 118.153 192.876 118.269 192.797 118.368C190.972 118.368 189.086 118.205 187.099 118.205C186.087 118.304 185.069 118.304 184.057 118.205L183.905 117.999V117.555L183.986 117.392C184.706 117.208 185.872 117.208 186.267 116.666C186.663 116.124 186.368 115.191 186.186 114.638L184.706 109.965L178.024 110.041C177.78 111.375 175.854 115.018 176.766 116.33C177.344 117.165 178.723 116.893 179.352 117.544C179.371 117.675 179.361 117.81 179.323 117.936C179.284 118.062 179.217 118.177 179.129 118.27L174.728 118.151C173.868 118.237 173.003 118.237 172.142 118.151L171.99 117.945C171.971 117.821 171.978 117.695 172.012 117.574C172.045 117.454 172.104 117.344 172.183 117.251C175.103 116.525 175.326 113.912 176.32 111.201C177.679 107.493 178.885 103.611 180.305 100.001C180.743 98.7056 181.264 97.4448 181.866 96.2275L182.019 96.2926ZM139.949 96.2926C140.288 96.2547 140.632 96.2804 140.963 96.3685L142.555 100.228L145.293 107.981C146.012 109.965 146.611 111.96 147.321 113.868C147.56 114.724 147.901 115.544 148.334 116.308C148.994 117.219 150.241 116.948 150.92 117.652C150.939 117.781 150.932 117.913 150.898 118.038C150.865 118.164 150.807 118.28 150.727 118.379C148.902 118.379 147.016 118.216 145.029 118.216C144.017 118.314 142.999 118.314 141.987 118.216L141.835 118.01V117.566L141.906 117.403C142.626 117.219 143.792 117.219 144.187 116.677C144.583 116.134 144.309 115.321 144.187 114.768L142.666 109.976L135.984 110.052C135.741 111.385 133.825 115.029 134.727 116.34C135.285 117.143 136.664 116.872 137.313 117.555C137.332 117.686 137.322 117.821 137.283 117.947C137.245 118.073 137.178 118.188 137.09 118.281L132.689 118.162C131.829 118.247 130.963 118.247 130.103 118.162L129.951 117.956C129.932 117.832 129.939 117.705 129.972 117.585C130.006 117.465 130.064 117.354 130.144 117.262C133.064 116.536 133.287 113.923 134.281 111.212C135.64 107.504 136.846 103.622 138.266 100.012C138.703 98.7165 139.225 97.4556 139.827 96.2384L139.949 96.2926ZM109.459 96.2926C111.033 96.2057 112.608 96.4526 114.093 97.0191L115.918 97.9515L116.486 97.3443C116.608 97.0717 116.777 96.8255 116.983 96.6179H117.55L117.743 96.8998C117.867 97.5268 117.918 98.1677 117.895 98.8081C118.175 100.442 118.25 102.108 118.118 103.763L117.926 103.969H117.51C116.993 103.687 116.82 102.776 116.557 102.223C116.09 101.151 115.432 100.186 114.62 99.3827C113.962 98.755 113.221 98.236 112.42 97.8431C108.597 96.1842 105.93 99.7405 104.937 102.429C103 107.721 104.815 113.348 107.978 115.788C108.649 116.372 109.433 116.788 110.273 117.006C111.114 117.223 111.989 117.237 112.835 117.045C114.421 116.554 115.809 115.513 116.78 114.085C117.165 113.521 117.398 112.719 117.915 112.296H118.443L118.666 112.502C118.666 114.031 117.652 115.007 116.881 115.755C115.162 117.465 112.927 118.462 110.58 118.566C108.234 118.669 105.93 117.872 104.085 116.319C100.029 113.001 99.1569 105.118 102.564 100.283C103.797 98.5978 105.48 97.3536 107.39 96.7154L109.479 96.2709L109.459 96.2926ZM26.7696 96.2926C27.1417 96.2391 27.5203 96.28 27.8748 96.4119L29.3146 99.9032L32.1639 107.938C32.9041 109.998 33.5125 112.069 34.2932 114.031C34.5394 114.843 34.8801 115.619 35.3072 116.34C35.946 117.219 37.2033 116.958 37.8523 117.642V118.173L37.7712 118.335C37.2127 118.4 36.6481 118.371 36.0981 118.249H31.0283C30.296 118.43 29.5299 118.374 28.828 118.086V117.999C28.8137 117.889 28.8237 117.777 28.8571 117.671C28.8906 117.566 28.9466 117.47 29.0206 117.392C29.7811 117.251 30.8965 117.23 31.2615 116.666C31.6265 116.102 31.3527 115.332 31.1905 114.757L29.6695 110.008L24.4679 110.084C24.042 110.149 23.2004 109.911 22.9875 110.204C22.4704 111.147 21.0508 115.397 21.7707 116.416C22.298 117.164 23.5959 117.002 24.3158 117.501C24.3379 117.639 24.3293 117.78 24.2905 117.914C24.2517 118.048 24.184 118.17 24.0927 118.27L19.6515 118.151C18.8186 118.237 17.9799 118.237 17.147 118.151L16.9543 117.913V117.511C17.1673 117.067 18.0393 117.11 18.4348 116.861C19.1604 116.329 19.716 115.572 20.0267 114.692C21.9127 110.041 23.2815 104.934 25.0965 100.326C25.5739 98.924 26.1327 97.5551 26.7696 96.2275V96.2926ZM160.33 96.2926C162.073 96.2034 163.816 96.4949 165.45 97.1492C166.205 97.663 167.04 98.0301 167.914 98.2334C168.205 98.0228 168.462 97.7628 168.675 97.4636H169.172C169.608 98.0816 170.186 103.329 169.78 103.969H169.283C168.786 103.698 168.076 101.801 167.691 101.172C166.7 99.7004 165.329 98.5701 163.747 97.919C162.074 97.3308 160.251 97.4751 158.677 98.3202C155.868 99.8707 153.242 104.685 154.276 109.726C154.976 113.153 156.649 115.712 159.437 116.915C160.79 117.499 162.289 117.572 163.686 117.121C164.679 116.801 165.517 116.08 166.02 115.11C166.524 114.14 166.654 112.998 166.383 111.928C166.364 111.171 166.184 110.43 165.856 109.759C165.106 108.675 163.716 109.401 162.814 108.74V108.133C163.057 107.634 164.446 107.851 165.126 107.851H172.224L172.376 108.089C172.433 108.302 172.433 108.527 172.376 108.74C171.554 109.293 170.165 108.978 169.79 109.998C169.344 111.234 170.033 114.725 169.486 115.679C169.131 116.297 168.026 116.633 167.397 116.98C165.035 118.26 161.232 119.387 157.825 118.281C153.455 116.861 148.831 111.895 150.616 104.967C150.87 103.896 151.266 102.87 151.792 101.92C153.123 99.7073 155.097 98.0235 157.41 97.1275L159.437 96.5636L160.391 96.4444L160.33 96.2926ZM106.468 49.4962H105.515L102.777 49.8974V58.1702C106.458 58.7774 111.649 59.7207 113.444 56.5005C113.918 55.5431 114.065 54.4387 113.859 53.3778C113.16 50.0383 110.27 49.4203 106.458 49.442L106.468 49.4962ZM86.6547 49.4962L85.0627 49.6154C83.1768 50.0058 81.6761 50.5913 80.8446 52.0876C80.4895 52.7951 80.3312 53.5964 80.3883 54.397C81.0778 60.0785 86.7763 59.0268 91.542 58.2136V49.9299C89.9205 49.6662 88.2844 49.5177 86.6445 49.4853L86.6547 49.4962ZM106.468 36.908L105.251 36.9839L102.787 37.3851V42.6979C102.787 43.1642 102.635 44.3243 102.858 44.6062C103.716 44.9181 104.61 45.1077 105.515 45.17C108.871 45.8531 112.501 45.17 113.302 42.4485C113.513 41.5546 113.434 40.6105 113.079 39.7704C112.146 37.4501 109.591 36.8646 106.478 36.8863L106.468 36.908ZM86.8778 36.908L84.7484 37.1465C82.8523 37.6236 80.3782 39.1524 80.9156 41.9823C81.7673 46.4278 87.7497 45.6037 91.542 44.6171V37.3959C89.9968 37.1135 88.4347 36.9504 86.8676 36.908H86.8778ZM98.4167 63.2987V33.0806C104.024 32.9938 111.284 32.1264 115.086 34.5877C116.505 35.4765 117.587 36.8699 118.143 38.5245C118.699 40.1792 118.694 41.9902 118.128 43.6412C117.561 45.0903 116.609 46.3303 115.391 47.2084H115.472C116.486 48.3794 117.702 49.2034 118.362 50.7756C118.72 51.6718 118.975 52.6111 119.122 53.573C119.291 55.1783 119.057 56.8027 118.443 58.2787C118.097 59.3951 117.502 60.4045 116.708 61.2189C115.915 62.0333 114.947 62.6281 113.89 62.9518C112.45 63.418 110.219 63.1903 108.425 63.1903H98.4066L98.4167 63.2987ZM95.9122 33.0914V63.2987H85.6204C83.4607 63.2987 81.1387 63.4397 79.6177 62.7675C76.6772 61.4664 74.1017 56.7499 75.4807 52.0876C76.1481 50.1501 77.3371 48.4674 78.8978 47.2518C78.3319 46.9737 77.8455 46.5396 77.4884 45.994C76.4155 44.6271 75.8274 42.8995 75.8274 41.1149C75.8274 39.3303 76.4155 37.6027 77.4884 36.2358C80.9055 32.0939 89.0882 33.1131 95.9427 33.189L95.9122 33.0914ZM141.358 45.2351C141.308 46.6229 141.074 48.1517 141.095 49.5721L142.048 48.4878C143.508 46.894 145.09 45.3543 148.132 45.3652L147.26 47.8048C146.927 49.2726 146.52 50.7203 146.043 52.1418C145.305 53.8084 144.22 55.2716 142.869 56.4183C141.519 57.5651 139.941 58.3648 138.256 58.7557C137.799 59.7099 137.292 60.5556 136.887 61.5964C139.432 60.0026 141.571 58.5606 145.81 58.7557C145.201 62.1603 141.034 66.0528 138.022 67.0394L135.629 67.5273C134.778 67.6683 133.683 67.2996 133.196 67.6466C132.658 68.8718 131.35 69.6091 130.843 70.8994C133.561 69.8151 137.576 68.6008 141.135 69.7176C140.877 70.6154 140.406 71.4261 139.766 72.0704C138.661 73.5666 135.711 76.5591 133.044 76.1688C131.777 76.0347 130.529 75.7473 129.323 75.3123L127.497 74.4557C126.838 75.3123 125.774 75.7894 125.145 76.6893C129.748 76.6351 132.841 77.7735 135.204 80.0613C135.062 80.7336 133.003 81.254 132.283 81.4817C130.012 82.2081 126.534 82.5659 124.314 81.4817C123.25 80.9261 122.255 80.2304 121.353 79.4108L117.297 81.1564H117.368C119.274 82.6744 122.133 83.2382 123.289 85.4934L123.178 85.732C122.372 86.0118 121.549 86.2293 120.714 86.3825C119.228 86.6629 117.704 86.6151 116.235 86.2422C114.767 85.8692 113.386 85.1791 112.176 84.214C111.402 83.4096 110.69 82.5393 110.047 81.6118C107.563 81.6118 105.788 84.5176 104.977 86.4801C104.784 86.968 104.105 88.4534 103.304 87.7812C102.503 87.109 103.618 85.0597 103.831 84.6152C104.4 83.3125 105.247 82.1707 106.303 81.2818C107.36 80.393 108.597 79.7818 109.915 79.4975C109.013 74.6075 112.704 70.4982 115.076 68.6549C115.924 67.8591 116.904 67.2412 117.966 66.8334V67.1153L117.702 70.0428C117.488 72.0697 117.08 74.0679 116.486 76.0062C115.928 77.4266 114.873 78.0771 114.022 79.1289C115.654 79.2156 117.469 79.259 118.351 78.3157C118.109 74.1141 119.179 69.9456 121.393 66.4648C121.809 65.8034 122.884 63.8951 123.553 63.6674C123.725 66.0202 124.384 68.8502 123.857 71.5391C123.666 72.5934 123.388 73.6275 123.026 74.6292L122.458 75.9737C123.786 75.2452 124.93 74.1853 125.794 72.8836C125.317 70.2163 124.962 64.4589 125.571 61.6832C125.932 60.2486 126.467 58.8708 127.163 57.5847H127.315L127.994 59.6123L129.13 63.6674C129.419 65.4569 129.507 67.2768 129.394 69.0887C130.435 68.2667 131.229 67.1357 131.675 65.8359C131.234 65.0917 130.893 64.2851 130.661 63.4397C129.329 59.8082 128.671 55.9339 128.724 52.0333H128.836C131.604 53.1176 132.78 55.9909 133.541 59.2545L133.956 62.6699V62.594C135.832 60.3388 134.372 58.6581 133.5 56.3053C132.7 53.6432 132.053 50.9311 131.563 48.1843L130.428 44.5737C133.875 45.2242 135.295 48.6613 136.806 51.437C137.221 52.1384 137.561 52.8876 137.82 53.6706H137.891C138.073 52.6839 139.422 49.7564 138.905 48.7155C138.712 48.2927 138.012 48.1517 137.617 47.9457C136.598 47.4446 135.63 46.8343 134.727 46.1242C132.922 44.6388 131.939 42.0799 130.671 40.0306L128.927 37.1899C133.257 37.1899 135.244 39.8463 136.897 42.6654C137.424 43.5653 138.469 45.8423 139.33 46.2326C139.653 44.1176 139.615 41.9578 139.219 39.8572C139.097 39.2391 139.097 38.2416 138.692 37.9489C138.093 37.6778 137.14 38.1657 136.339 38.0356C135.242 37.91 134.182 37.5407 133.226 36.9514C131.016 35.4009 129.475 33.0155 127.224 31.4325C126.715 30.9912 126.152 30.6264 125.551 30.3483V30.1856C131.219 27.9195 134.524 32.7119 138.043 34.8588C137.505 32.3661 136.424 30.0444 134.889 28.0822C134.084 28.303 133.256 28.4123 132.425 28.4074C129.955 28.0471 127.541 27.3361 125.246 26.2932L121.91 25.2089C122.275 21.8911 129.13 23.756 131.138 24.3523L133.034 24.7969L132.963 24.721C132.11 23.2622 131.088 21.9252 129.921 20.7418C128.816 20.9586 127.72 21.3706 126.463 21.5983C122.975 22.2055 117.388 21.0779 114.813 20.0912V19.9719C115.201 19.4665 115.648 19.0148 116.141 18.6275C118.398 17.4836 120.927 17.1052 123.391 17.5432L126.848 17.9878C126.94 17.9227 126.94 17.8793 127.001 17.7818C126.105 16.819 125.127 15.9478 124.08 15.1796L122.823 15.7108C121.674 15.9782 120.484 15.9782 119.335 15.7108C116.5 14.9528 113.994 13.1768 112.237 10.6799C111.461 9.8992 110.84 8.95874 110.412 7.91504C115.066 7.70903 119.152 8.04515 121.91 10.1486C123.665 11.4931 124.496 13.6508 126.463 14.7784V14.6591C125.913 13.3631 125.432 12.0345 125.023 10.6799C124.009 5.99593 126.037 2.88413 127.457 0.0433794H127.568C128.268 2.42874 128.643 4.90082 129.465 7.14523C130.113 8.92341 131.036 10.1703 131.401 12.3388C131.597 14.048 131.507 15.7806 131.138 17.4565C131.046 17.9769 130.742 19.0395 130.985 19.278C131.793 20.628 132.764 21.8568 133.875 22.932C133.541 19.419 132.973 15.6892 133.946 12.3388C134.22 11.4064 134.534 9.89924 135.386 9.61733C136.126 12.946 137.414 15.6891 138.002 19.2021C138.499 22.3682 137.13 24.8511 136.441 27.0738C136.983 28.4085 137.663 29.6741 138.469 30.847L138.621 30.7278C139.401 27.334 139.3 21.1972 142.676 20.7851C142.447 21.9719 142.372 23.187 142.453 24.3957C142.798 26.7052 143.559 30.3483 142.869 32.6361C142.332 34.4034 141.196 34.8046 140.284 36.0515C140.386 36.9422 140.59 37.8161 140.892 38.6537V38.5777L142.028 36.7562C142.931 35.3774 144.017 34.1465 145.252 33.1023H145.404L146.053 36.7996C146.854 41.6245 145.191 45.2025 141.115 45.2893L141.358 45.2351ZM52.9807 45.2351C47.2619 45.17 47.1605 38.1549 48.7322 33.0155H48.9046L50.1213 34.2733C51.4006 35.5009 52.456 36.9714 53.2342 38.6103V38.5344C53.6026 37.7365 53.8099 36.8647 53.8426 35.9755C52.6647 35.1772 51.7582 33.995 51.257 32.6035C50.5675 30.3158 51.328 26.6727 51.6727 24.3632C51.756 23.1544 51.6809 21.9391 51.4496 20.7526H51.5612C53.8223 21.6959 54.451 24.0054 54.9377 26.8028C55.181 28.2231 55.0087 29.817 55.617 30.8253L55.7286 30.7494C56.0125 30.0555 57.6551 27.6593 57.6653 27.0521L57.0974 25.3824C56.2409 23.4474 55.8905 21.3004 56.0835 19.1696C56.6107 15.6783 57.8883 12.8809 58.6995 9.5848C59.5512 9.87755 59.8656 11.363 60.1393 12.3063C61.1533 15.7867 60.5551 19.2889 60.2205 22.8994C61.4474 21.8911 62.0659 20.1454 63.2624 19.1262C62.6033 16.9577 62.2484 12.9785 63.0393 10.6365C63.6274 8.92341 64.54 7.51386 65.0672 5.6381L66.5476 0H66.6592L67.4906 1.42037C68.1432 2.58981 68.6542 3.84311 69.0116 5.15021C70.0255 8.9451 68.5046 11.9268 67.6022 14.5724V14.6916C69.5794 13.6074 70.4007 11.4389 72.1549 10.0619C74.9332 7.89337 78.989 7.66568 83.6533 7.82832C83.2278 8.87351 82.6067 9.81444 81.8282 10.5932C79.8002 13.3146 74.7304 17.63 70.0255 15.1362C69.2549 15.6891 67.4704 16.936 67.0648 17.7709L67.2169 18.0094C70.8773 17.4673 75.5517 17.0011 78.188 18.8985C78.6487 19.1637 79.0076 19.5935 79.202 20.1129C77.2741 20.7102 75.3087 21.1595 73.3209 21.4574L70.5528 21.6634H68.3931L65.7365 21.2622L64.0634 20.7309C63.0495 22.1188 61.853 23.3114 60.9505 24.786C62.0787 24.5641 63.1929 24.2672 64.2865 23.897C65.3005 23.6151 66.3144 23.5717 67.3994 23.3657C67.9739 23.2476 68.5618 23.222 69.1434 23.2898C70.279 23.4958 72.2867 23.8861 72.0332 25.2414L69.8735 25.9679L63.9519 28.1364C62.3307 28.4269 60.6756 28.4269 59.0544 28.1364L57.6146 30.4458C56.8358 31.829 56.2708 33.3374 55.9415 34.913C59.5513 32.7445 62.6236 27.9954 68.4336 30.2398V30.4025C67.8301 30.6761 67.2666 31.0413 66.7606 31.4867C64.5197 33.0698 62.9683 35.4551 60.7579 37.0056C59.6622 37.7579 58.3785 38.136 57.0772 38.0899C56.4629 37.9944 55.8413 37.9653 55.2216 38.0031C54.7146 39.3476 53.8122 44.7146 54.6943 46.2868C55.7083 45.517 56.4079 43.8798 57.0873 42.7196C58.7502 39.8789 60.7173 37.2333 65.0571 37.2441L63.3131 40.0849C62.0355 42.1341 61.0519 44.693 59.2572 46.1784C58.4207 46.8291 57.5317 47.3988 56.6006 47.8807C56.1747 48.1192 55.3737 48.2818 55.1202 48.6939C54.745 49.301 55.901 53.3887 56.2254 53.7682V53.6923L57.6348 50.7323C58.9936 48.271 60.5855 45.311 63.7187 44.6821L62.583 48.2927C62.1174 50.9271 61.508 53.5302 60.7579 56.0884L59.1254 60.2737C58.9935 61.0327 59.9872 62.182 60.1393 62.7892C60.1393 58.7666 62.2383 52.5213 65.341 52.1526V53.0417L65.2295 55.1126C65.0786 56.8423 64.8383 58.5616 64.5096 60.2628C64.1563 61.5876 63.7262 62.8877 63.2218 64.1553L62.3498 66.107C62.9585 67.2425 63.7281 68.2703 64.6312 69.1537C64.5084 66.6754 64.7653 64.1922 65.3917 61.8025L66.72 57.6606H66.8315H66.9127C67.5164 58.9739 68.038 60.3286 68.4742 61.7158C69.1434 64.7408 68.6161 70.0211 68.2511 72.9595C69.4273 73.9678 70.1371 75.2364 71.5871 76.0062L70.5731 73.1655C69.8214 70.0505 69.8214 66.7824 70.5731 63.6674C71.3539 64.0794 72.2766 65.8359 72.7734 66.5949C74.8014 69.8477 75.8153 72.9052 75.8153 78.3699C77.16 79.0639 78.6626 79.3311 80.145 79.1397L80.074 79.0204C77.2247 77.6868 76.3223 71.2138 76.2006 66.8443C77.2633 67.2499 78.244 67.8681 79.0904 68.6658C81.5037 70.4982 85.1236 74.5316 84.2515 79.5083C87.1414 79.9204 88.9969 82.2082 90.2543 84.42C90.6903 85.1899 91.5217 86.697 90.9032 87.7921C90.6728 87.881 90.4213 87.8856 90.1883 87.8052C89.9552 87.7247 89.7537 87.5637 89.6155 87.3475L88.8955 85.5585C88.2544 84.3069 87.3437 83.2365 86.2389 82.4358C85.9043 82.1973 84.7484 81.254 84.1502 81.7094C83.5925 81.9805 82.6901 83.7044 82.0614 84.2249C80.9173 85.1552 79.6082 85.8272 78.2138 86.2C76.8193 86.5727 75.3686 86.6386 73.9496 86.3934C72.9357 86.2091 71.4857 86.285 70.9077 85.5802C71.2322 84.1815 75.501 81.6009 76.9104 81.113C75.6147 80.3917 74.2563 79.8071 72.8545 79.3674C72.327 79.9638 71.697 80.446 70.999 80.7878C68.5147 82.3274 65.0774 82.4033 61.9645 81.3949C61.0012 81.0913 59.5918 80.8528 59.0443 80.0938C59.2268 79.4541 60.1495 79.0096 60.6362 78.6301C62.6641 77.1555 65.6351 76.6134 69.1029 76.6025L68.5756 75.9954L66.72 74.369L64.9354 75.2255C63.7284 75.6571 62.4804 75.9444 61.2142 76.0821C58.517 76.4833 55.5866 73.469 54.4915 71.9836C53.8524 71.3394 53.3807 70.5286 53.1227 69.6308C56.9555 68.3839 60.474 69.9344 63.4449 70.8126C62.7388 69.5488 61.8682 68.3989 60.8593 67.3972C59.4229 67.6508 57.9503 67.5242 56.5702 67.0286C53.5443 66.0798 50.9926 63.8891 49.4724 60.9351C49.0108 60.2623 48.6672 59.5055 48.4584 58.7015C52.6258 58.4413 54.9174 59.9375 57.3813 61.5422C57.062 60.5119 56.5745 59.5501 55.9415 58.7015L54.4611 58.2136C53.5447 57.8265 52.6763 57.3203 51.8755 56.7065C50.0708 55.3049 48.6863 53.3724 47.8906 51.1443L46.9375 47.4469L46.1364 45.2784C49.0871 45.2784 50.7804 46.8506 52.2202 48.4445L53.1328 49.5287C53.1328 48.1409 52.93 46.6121 52.8692 45.1917L52.9807 45.2351Z" fill="#FFF7EB"/>
</svg>
