<svg width="102" height="88" viewBox="0 0 102 88" fill="none" xmlns="http://www.w3.org/2000/svg">
<path fill-rule="evenodd" clip-rule="evenodd" d="M60.3313 49.4962H59.3781L56.6404 49.8974V58.1702C60.3211 58.7774 65.5126 59.7207 67.3074 56.5005C67.7818 55.5431 67.9288 54.4387 67.7231 53.3778C67.0234 50.0383 64.1336 49.4203 60.3211 49.442L60.3313 49.4962ZM40.5183 49.4962L38.9263 49.6154C37.0403 50.0058 35.5397 50.5913 34.7082 52.0876C34.3531 52.7951 34.1948 53.5964 34.2519 54.397C34.9414 60.0785 40.6399 59.0268 45.4056 58.2136V49.9299C43.7841 49.6662 42.148 49.5177 40.5081 49.4853L40.5183 49.4962ZM60.3313 36.908L59.1145 36.9839L56.6505 37.3851V42.6979C56.6505 43.1642 56.4984 44.3243 56.7215 44.6062C57.5801 44.9181 58.4733 45.1077 59.3781 45.17C62.7344 45.8531 66.3644 45.17 67.1654 42.4485C67.3764 41.5546 67.2977 40.6105 66.9423 39.7704C66.0094 37.4501 63.4543 36.8646 60.3414 36.8863L60.3313 36.908ZM40.7413 36.908L38.612 37.1465C36.7159 37.6236 34.2418 39.1524 34.7792 41.9823C35.6309 46.4278 41.6133 45.6037 45.4056 44.6171V37.3959C43.8604 37.1135 42.2983 36.9504 40.7312 36.908H40.7413ZM52.2803 63.2987V33.0806C57.8876 32.9938 65.1476 32.1264 68.95 34.5877C70.3687 35.4765 71.4504 36.8699 72.0064 38.5245C72.5624 40.1792 72.5573 41.9902 71.9919 43.6412C71.4242 45.0903 70.4725 46.3303 69.2542 47.2084H69.3353C70.3493 48.3794 71.566 49.2034 72.2251 50.7756C72.5834 51.6718 72.8388 52.6111 72.9856 53.573C73.1548 55.1783 72.9203 56.8027 72.3062 58.2787C71.9606 59.3951 71.3652 60.4045 70.5718 61.2189C69.7783 62.0333 68.8109 62.6281 67.7535 62.9518C66.3137 63.418 64.0829 63.1903 62.2882 63.1903H52.2702L52.2803 63.2987ZM49.7758 33.0914V63.2987H39.484C37.3242 63.2987 35.0023 63.4397 33.4813 62.7675C30.5408 61.4664 27.9653 56.7499 29.3443 52.0876C30.0117 50.1501 31.2007 48.4674 32.7614 47.2518C32.1955 46.9737 31.709 46.5396 31.352 45.994C30.2791 44.6271 29.691 42.8995 29.691 41.1149C29.691 39.3303 30.2791 37.6027 31.352 36.2358C34.769 32.0939 42.9518 33.1131 49.8062 33.189L49.7758 33.0914ZM95.2219 45.2351C95.1712 46.6229 94.938 48.1517 94.9583 49.5721L95.9114 48.4878C97.3715 46.894 98.9533 45.3543 101.995 45.3652L101.123 47.8048C100.79 49.2726 100.384 50.7203 99.9065 52.1418C99.169 53.8084 98.0832 55.2716 96.733 56.4183C95.3828 57.5651 93.8043 58.3648 92.1192 58.7557C91.6629 59.7099 91.1559 60.5556 90.7504 61.5964C93.2954 60.0026 95.4349 58.5606 99.6733 58.7557C99.0649 62.1603 94.8975 66.0527 91.886 67.0394L89.493 67.5273C88.6413 67.6683 87.5462 67.2996 87.0595 67.6466C86.5221 68.8718 85.214 69.6091 84.7071 70.8994C87.4245 69.8151 91.4399 68.6008 94.9989 69.7176C94.7409 70.6154 94.2692 71.4261 93.63 72.0704C92.5248 73.5667 89.5741 76.5591 86.9074 76.1688C85.6406 76.0347 84.3923 75.7473 83.1861 75.3123L81.361 74.4557C80.7019 75.3123 79.6372 75.7894 79.0086 76.6893C83.612 76.6351 86.7046 77.7735 89.0671 80.0613C88.9252 80.7336 86.8668 81.254 86.1469 81.4817C83.8756 82.2081 80.3977 82.5659 78.1771 81.4817C77.1133 80.9261 76.1186 80.2304 75.2163 79.4108L71.1604 81.1564H71.2314C73.1377 82.6744 75.9971 83.2382 77.153 85.4934L77.0415 85.7319C76.2358 86.0118 75.4124 86.2293 74.5775 86.3825C73.0914 86.6629 71.5673 86.6151 70.099 86.2422C68.6308 85.8692 67.2494 85.1791 66.0399 84.214C65.2655 83.4096 64.5533 82.5393 63.9105 81.6118C61.4263 81.6118 59.6519 84.5176 58.8407 86.4801C58.648 86.968 57.9687 88.4534 57.1677 87.7812C56.3666 87.109 57.482 85.0597 57.6949 84.6152C58.2636 83.3125 59.1104 82.1707 60.1671 81.2818C61.2238 80.393 62.4608 79.7818 63.7787 79.4975C62.8763 74.6075 66.5672 70.4982 68.9398 68.6549C69.7876 67.8591 70.768 67.2412 71.8297 66.8334V67.1153L71.566 70.0428C71.3513 72.0697 70.9437 74.0679 70.3493 76.0062C69.7916 77.4266 68.737 78.0771 67.8853 79.1289C69.5178 79.2156 71.3328 79.259 72.215 78.3157C71.973 74.1141 73.0429 69.9456 75.2569 66.4648C75.6726 65.8034 76.7474 63.8951 77.4166 63.6674C77.589 66.0202 78.2481 68.8502 77.7208 71.5391C77.5296 72.5934 77.2514 73.6275 76.8893 74.6292L76.3215 75.9737C77.6495 75.2452 78.7939 74.1853 79.6575 72.8836C79.181 70.2163 78.826 64.4589 79.4344 61.6832C79.7956 60.2486 80.3308 58.8708 81.0264 57.5847H81.1785L81.8578 59.6123L82.9935 63.6674C83.2823 65.4569 83.3708 67.2768 83.2571 69.0887C84.2991 68.2667 85.0923 67.1357 85.5385 65.8359C85.0976 65.0917 84.7562 64.2851 84.5246 63.4397C83.1921 59.8082 82.5343 55.9339 82.5878 52.0333H82.6994C85.4676 53.1176 86.6437 55.9909 87.4042 59.2545L87.82 62.6699V62.594C89.6958 60.3388 88.2357 58.6581 87.3637 56.3053C86.5634 53.6432 85.9167 50.9311 85.427 48.1843L84.2914 44.5737C87.7389 45.2242 89.1584 48.6613 90.6692 51.437C91.0847 52.1384 91.4248 52.8876 91.6832 53.6706H91.7542C91.9367 52.6839 93.2853 49.7564 92.7681 48.7155C92.5755 48.2927 91.8758 48.1517 91.4804 47.9457C90.462 47.4446 89.4938 46.8343 88.5906 46.1242C86.7857 44.6388 85.8022 42.0799 84.5347 40.0306L82.7906 37.1899C87.1203 37.1899 89.1077 39.8463 90.7605 42.6654C91.2878 43.5653 92.3321 45.8423 93.194 46.2326C93.5161 44.1176 93.4784 41.9578 93.0825 39.8572C92.9608 39.2391 92.9608 38.2416 92.5552 37.9489C91.9569 37.6778 91.0038 38.1657 90.2028 38.0356C89.1058 37.91 88.0455 37.5407 87.0899 36.9514C84.8794 35.4009 83.3382 33.0155 81.0872 31.4325C80.5784 30.9912 80.0155 30.6264 79.4142 30.3483V30.1856C85.0823 27.9195 88.3877 32.7119 91.9062 34.8588C91.3681 32.3661 90.2877 30.0444 88.7528 28.0822C87.9479 28.303 87.1198 28.4123 86.2888 28.4074C83.8186 28.0471 81.4044 27.3361 79.1099 26.2932L75.774 25.2089C76.139 21.8911 82.9934 23.756 85.0011 24.3523L86.8972 24.7969L86.8263 24.721C85.9739 23.2622 84.9518 21.9252 83.7844 20.7418C82.6792 20.9586 81.584 21.3706 80.3267 21.5983C76.8387 22.2055 71.2517 21.0779 68.6762 20.0912V19.9719C69.065 19.4665 69.5112 19.0148 70.0045 18.6275C72.2611 17.4836 74.7909 17.1052 77.2544 17.5432L80.712 17.9878C80.8033 17.9227 80.8033 17.8793 80.8642 17.7818C79.9687 16.819 78.991 15.9478 77.9439 15.1796L76.6866 15.7108C75.5374 15.9782 74.3478 15.9782 73.1985 15.7108C70.3635 14.9528 67.8579 13.1768 66.1008 10.6799C65.3244 9.8992 64.7035 8.95874 64.2756 7.91504C68.9297 7.70903 73.016 8.04515 75.774 10.1486C77.5282 11.4931 78.3596 13.6508 80.3267 14.7784V14.6591C79.7764 13.3631 79.2957 12.0345 78.8869 10.6799C77.8729 5.99593 79.9008 2.88413 81.3204 0.0433794H81.432C82.1316 2.42874 82.5068 4.90083 83.3281 7.14523C83.977 8.92341 84.8997 10.1703 85.2647 12.3388C85.4601 14.048 85.3708 15.7806 85.0011 17.4565C84.9098 17.9769 84.6057 19.0395 84.849 19.278C85.6561 20.628 86.6279 21.8568 87.7388 22.932C87.4042 19.419 86.8364 15.6892 87.8098 12.3388C88.0836 11.4064 88.3979 9.89923 89.2496 9.61733C89.9898 12.946 91.2776 15.6891 91.8657 19.2021C92.3625 22.3682 90.9937 24.8511 90.3042 27.0738C90.8465 28.4085 91.5267 29.6741 92.3321 30.847L92.4842 30.7278C93.2649 27.334 93.1635 21.1971 96.5401 20.7851C96.3105 21.9719 96.2355 23.187 96.317 24.3957C96.6618 26.7052 97.4222 30.3483 96.7327 32.6361C96.1953 34.4034 95.0597 34.8046 94.1471 36.0514C94.2497 36.9422 94.454 37.8161 94.7555 38.6537V38.5777L95.8912 36.7562C96.7945 35.3774 97.8807 34.1465 99.1156 33.1023H99.2677L99.9166 36.7996C100.718 41.6245 99.0547 45.2025 94.9786 45.2893L95.2219 45.2351ZM6.8443 45.2351C1.12551 45.17 1.02411 38.1549 2.59576 33.0155H2.76815L3.98492 34.2733C5.26421 35.5009 6.31964 36.9714 7.09779 38.6103V38.5344C7.46619 37.7365 7.67348 36.8647 7.70618 35.9755C6.52832 35.1772 5.62183 33.995 5.12057 32.6035C4.43107 30.3158 5.19155 26.6727 5.5363 24.3632C5.61957 23.1544 5.54449 21.9391 5.31322 20.7526H5.42475C7.6859 21.6959 8.31458 24.0054 8.80128 26.8028C9.04464 28.2231 8.87224 29.817 9.48063 30.8253L9.59218 30.7494C9.87609 30.0555 11.5187 27.6593 11.5289 27.0521L10.961 25.3824C10.1045 23.4474 9.75405 21.3004 9.94704 19.1696C10.4743 15.6783 11.7519 12.8809 12.5631 9.5848C13.4148 9.87755 13.7292 11.363 14.0029 12.3063C15.0169 15.7867 14.4187 19.2889 14.0841 22.8994C15.311 21.8911 15.9295 20.1454 17.126 19.1262C16.4669 16.9577 16.112 12.9785 16.9029 10.6365C17.491 8.92341 18.4036 7.51386 18.9308 5.6381L20.4112 0H20.5228L21.3542 1.42037C22.0068 2.58981 22.5178 3.84311 22.8752 5.15021C23.8891 8.9451 22.3682 11.9268 21.4658 14.5724V14.6916C23.443 13.6074 24.2643 11.4389 26.0185 10.0619C28.7968 7.89337 32.8526 7.66568 37.5169 7.82832C37.0914 8.87351 36.4703 9.81444 35.6918 10.5932C33.6638 13.3146 28.594 17.63 23.8891 15.1362C23.1185 15.6891 21.3339 16.936 20.9284 17.7709L21.0804 18.0094C24.7409 17.4673 29.4153 17.0011 32.0516 18.8985C32.5123 19.1637 32.8712 19.5935 33.0656 20.1129C31.1377 20.7102 29.1723 21.1595 27.1845 21.4574L24.4164 21.6634H22.2567L19.6001 21.2622L17.927 20.7309C16.913 22.1188 15.7166 23.3114 14.8141 24.786C15.9423 24.5641 17.0565 24.2672 18.1501 23.897C19.1641 23.6151 20.178 23.5717 21.263 23.3657C21.8375 23.2476 22.4254 23.222 23.007 23.2898C24.1426 23.4958 26.1503 23.8861 25.8968 25.2414L23.737 25.9679L17.8155 28.1364C16.1943 28.4269 14.5392 28.4269 12.918 28.1364L11.4781 30.4458C10.6994 31.829 10.1344 33.3374 9.80511 34.913C13.4148 32.7445 16.4872 27.9954 22.2972 30.2398V30.4025C21.6937 30.6761 21.1302 31.0413 20.6241 31.4867C18.3833 33.0698 16.8319 35.4551 14.6215 37.0056C13.5258 37.7579 12.2421 38.136 10.9407 38.0899C10.3265 37.9944 9.70487 37.9653 9.0852 38.0031C8.57821 39.3476 7.67576 44.7146 8.55791 46.2868C9.57188 45.517 10.2715 43.8798 10.9509 42.7196C12.6138 39.8789 14.5809 37.2333 18.9207 37.2441L17.1767 40.0849C15.8991 42.1341 14.9155 44.693 13.1208 46.1784C12.2843 46.8291 11.3952 47.3988 10.4642 47.8807C10.0383 48.1192 9.23728 48.2818 8.98379 48.6939C8.60862 49.301 9.76455 53.3887 10.089 53.7682V53.6923L11.4984 50.7323C12.8571 48.271 14.4491 45.311 17.5822 44.6821L16.4466 48.2927C15.981 50.9271 15.3716 53.5302 14.6215 56.0884L12.989 60.2737C12.8571 61.0327 13.8508 62.182 14.0029 62.7892C14.0029 58.7666 16.1018 52.5213 19.2046 52.1526V53.0417L19.0931 55.1126C18.9422 56.8423 18.7019 58.5616 18.3732 60.2628C18.0198 61.5876 17.5898 62.8877 17.0854 64.1553L16.2134 66.107C16.8221 67.2425 17.5917 68.2703 18.4948 69.1537C18.372 66.6754 18.6288 64.1922 19.2553 61.8025L20.5836 57.6606H20.6951H20.7763C21.38 58.9739 21.9016 60.3286 22.3378 61.7158C23.007 64.7408 22.4797 70.0211 22.1147 72.9595C23.2909 73.9678 24.0007 75.2364 25.4506 76.0062L24.4367 73.1655C23.685 70.0505 23.685 66.7824 24.4367 63.6674C25.2174 64.0794 26.1402 65.8359 26.637 66.5949C28.665 69.8477 29.6789 72.9052 29.6789 78.3699C31.0236 79.0639 32.5262 79.3311 34.0086 79.1397L33.9376 79.0204C31.0883 77.6868 30.1859 71.2138 30.0642 66.8443C31.1269 67.2499 32.1076 67.8681 32.954 68.6658C35.3673 70.4982 38.9871 74.5316 38.1151 79.5083C41.0049 79.9204 42.8605 82.2082 44.1178 84.42C44.5539 85.1899 45.3853 86.697 44.7668 87.7921C44.5364 87.881 44.2849 87.8856 44.0518 87.8052C43.8188 87.7247 43.6173 87.5637 43.479 87.3475L42.7591 85.5585C42.118 84.3069 41.2073 83.2365 40.1025 82.4358C39.7679 82.1973 38.612 81.254 38.0138 81.7094C37.4561 81.9805 36.5536 83.7044 35.925 84.2249C34.7809 85.1552 33.4718 85.8272 32.0774 86.2C30.6829 86.5727 29.2322 86.6386 27.8132 86.3934C26.7993 86.2091 25.3493 86.285 24.7713 85.5802C25.0958 84.1815 29.3646 81.6009 30.774 81.113C29.4782 80.3917 28.1199 79.8071 26.7181 79.3674C26.1905 79.9638 25.5606 80.446 24.8626 80.7878C22.3783 82.3274 18.941 82.4033 15.8281 81.3949C14.8648 81.0913 13.4554 80.8528 12.9078 80.0938C13.0904 79.4541 14.0131 79.0096 14.4998 78.6301C16.5277 77.1555 19.4987 76.6134 22.9664 76.6025L22.4392 75.9954L20.5836 74.369L18.799 75.2255C17.592 75.6571 16.344 75.9444 15.0778 76.0821C12.3806 76.4833 9.45022 73.469 8.35513 71.9836C7.71594 71.3394 7.24424 70.5286 6.98627 69.6308C10.8191 68.3839 14.3375 69.9344 17.3085 70.8126C16.6024 69.5488 15.7318 68.3989 14.7229 67.3972C13.2865 67.6508 11.8138 67.5242 10.4338 67.0286C7.40792 66.0798 4.85618 63.8891 3.33597 60.9351C2.87439 60.2623 2.53083 59.5055 2.322 58.7015C6.48942 58.4413 8.78098 59.9375 11.2449 61.5422C10.9256 60.5119 10.4381 59.5501 9.80511 58.7015L8.32471 58.2136C7.40831 57.8265 6.5399 57.3203 5.73907 56.7065C3.93438 55.3049 2.54986 53.3724 1.75418 51.1442L0.801041 47.4469L0 45.2784C2.95065 45.2784 4.64398 46.8506 6.08382 48.4445L6.99642 49.5287C6.99642 48.1409 6.79361 46.6121 6.73278 45.1917L6.8443 45.2351Z" fill="#323232"/>
</svg>
