<svg width="29" height="37" viewBox="0 0 29 37" fill="none" xmlns="http://www.w3.org/2000/svg">
<path d="M0.111096 0.0505069C5.22221 0.0505069 10.3333 0.0505069 15.4343 0.0505069C17.2828 0.181857 19.1515 0.0505143 21 0.121241C20.9091 1.77827 20.9394 3.43529 20.9394 5.09232C15.7778 5.09232 10.6162 5.09232 5.45454 5.09232C5.45454 7.56776 5.45454 10.0432 5.45454 12.5187C8.35353 12.5187 11.2525 12.5187 14.1414 12.5187C14.1414 14.105 14.1414 15.6812 14.1414 17.2675C11.2424 17.2675 8.34341 17.2675 5.44443 17.2675C5.44443 23.5016 5.44443 29.7356 5.44443 35.9697C3.63298 36.0101 1.81818 36.0101 0 35.9697C0.060606 30.6652 -2.34279e-05 25.3708 0.0706836 20.0662C0.0706836 13.3775 0.0706836 6.68875 0.0706836 0L0.111096 0.0505069Z" fill="#323232"/>
<path d="M22.8188 0.108643C24.632 0.108643 26.4452 0.108643 28.2584 0.108643C28.2584 4.89313 28.3091 9.68775 28.1976 14.4722C28.1976 20.1165 28.1976 25.7574 28.1976 31.395C28.1976 32.9628 28.1977 34.5408 28.1268 36.1086C25.1892 36.1086 22.2617 36.0176 19.3242 36.048C15.2723 36.048 11.2812 36.048 7.2699 36.048C7.2699 34.3789 7.33068 32.7099 7.2699 31.0409C12.436 31.0409 17.6021 31.0409 22.7783 31.0409C22.7783 28.5425 22.7783 26.044 22.7783 23.5456H14.1074C14.1074 21.9575 14.1074 20.3694 14.1074 18.7813C17.0146 18.7813 19.9218 18.7813 22.829 18.7813C22.829 12.5604 22.829 6.32949 22.829 0.108643H22.8188Z" fill="#323232"/>
</svg>
