<svg width="152" height="92" viewBox="0 0 152 92" fill="none" xmlns="http://www.w3.org/2000/svg">
<g clip-path="url(#clip0_11_5)">
<path d="M61.93 0.617303C66.99 0.617303 72.05 0.617303 77.1 0.617303C78.93 0.745698 80.78 0.61731 82.61 0.686446C82.52 2.3062 82.55 3.92594 82.55 5.54569C77.44 5.54569 72.33 5.54569 67.22 5.54569C67.22 7.96544 67.22 10.3852 67.22 12.805C70.09 12.805 72.96 12.805 75.82 12.805C75.82 14.3556 75.82 15.8963 75.82 17.4469C72.95 17.4469 70.08 17.4469 67.21 17.4469C67.21 23.5408 67.21 29.6346 67.21 35.7284C65.4167 35.7679 63.62 35.7679 61.82 35.7284C61.88 30.5432 61.82 25.3679 61.89 20.1827C61.89 13.6445 61.89 7.1062 61.89 0.567932L61.93 0.617303Z" fill="#FFF7EB"/>
<path d="M84.44 0.676575C86.23 0.676575 88.02 0.676575 89.81 0.676575C89.81 5.34818 89.86 10.0297 89.75 14.7013C89.75 20.2124 89.75 25.7202 89.75 31.2247C89.75 32.7556 89.75 34.2963 89.68 35.8272C86.78 35.8272 83.89 35.7383 80.99 35.7679C76.99 35.7679 73.05 35.7679 69.09 35.7679C69.09 34.1383 69.15 32.5087 69.09 30.879C74.19 30.879 79.29 30.879 84.4 30.879C84.4 28.4395 84.4 26 84.4 23.5605H75.84C75.84 22.0099 75.84 20.4593 75.84 18.9087C78.71 18.9087 81.58 18.9087 84.45 18.9087C84.45 12.8346 84.45 6.75065 84.45 0.676575H84.44Z" fill="#FFF7EB"/>
<path d="M0.0100098 51.1161C9.05668 51.1161 18.1 51.1161 27.14 51.1161C27.14 53.5161 27.14 55.9161 27.14 58.326H7.97C7.97 61.3383 7.97 64.3606 7.97 67.3729C13.56 67.3729 19.16 67.3729 24.75 67.3729C24.75 69.763 24.75 72.163 24.75 74.5531H7.94998C7.94998 80.2354 7.94998 85.9144 7.94998 91.5901C5.28331 91.5901 2.61665 91.5901 -0.0500183 91.5901C-0.0100183 78.0988 0.0100098 64.6074 0.0100098 51.1161Z" fill="#FFF7EB"/>
<path d="M32.42 91.5408C32.42 78.0494 32.42 64.5515 32.42 51.0469C41.77 51.0469 51.12 51.0469 60.42 51.0469C60.42 53.4469 60.42 55.8568 60.42 58.2568C53.67 58.2568 46.92 58.2568 40.17 58.2568C40.17 61.0815 40.17 63.8963 40.17 66.721C46.37 66.721 52.57 66.721 58.76 66.721C58.76 69.1111 58.76 71.5111 58.76 73.9013C52.5667 73.9013 46.3733 73.9013 40.18 73.9013C40.18 77.3679 40.18 80.8148 40.18 84.2914C47.24 84.2914 54.29 84.2914 61.35 84.2914C61.35 86.6946 61.35 89.098 61.35 91.5013C51.7 91.5013 42.04 91.5013 32.35 91.5013L32.42 91.5408Z" fill="#FFF7EB"/>
<path d="M67.37 51.1062C70.18 51.1062 72.99 51.1062 75.8 51.1062C80.8667 60.5087 85.9366 69.9078 91.01 79.3037C91.01 69.9078 91.01 60.512 91.01 51.1161C93.49 51.1161 96.01 51.1161 98.44 51.1161C98.44 64.6074 98.44 78.1054 98.44 91.6099C95.79 91.6099 93.14 91.6099 90.49 91.6099C85.29 81.9836 80.0767 72.3606 74.85 62.7408C74.85 72.3671 74.85 81.9935 74.85 91.6198C72.35 91.6198 69.85 91.6198 67.36 91.6198C67.36 78.1284 67.36 64.6305 67.36 51.126L67.37 51.1062Z" fill="#FFF7EB"/>
<path d="M106.05 51.1161C111.84 51.1161 117.62 51.1161 123.41 51.1161C126.625 51.0617 129.759 52.1087 132.28 54.079C134.728 56.1803 136.472 58.9668 137.28 62.0691C138.026 64.827 138.406 67.6689 138.41 70.5234C138.3 74.9185 137.67 79.4123 135.61 83.3629C134.324 86.1361 132.182 88.4354 129.49 89.9309C127.494 90.9455 125.284 91.4802 123.04 91.4914C117.39 91.4914 111.73 91.4914 106.04 91.4914C106.04 78 106.04 64.5087 106.04 50.9976M113.93 58.0494C113.93 66.833 113.93 75.6165 113.93 84.4H121.48C122.507 84.4031 123.526 84.212 124.48 83.8371C126.265 82.9898 127.684 81.5393 128.48 79.7482C129.808 76.6076 130.396 73.2102 130.2 69.8124C130.11 66.5531 129.61 63.0568 127.43 60.4691C126.12 58.8691 123.95 58.3358 121.96 58.2074C119.29 58.1482 116.61 58.2074 113.94 58.1679L113.93 58.0494Z" fill="#FFF7EB"/>
<path d="M143.72 91.6C143.72 78.1021 143.72 64.6041 143.72 51.1062C146.37 51.1062 149.02 51.1062 151.67 51.1062C151.67 64.591 151.67 78.0889 151.67 91.6C149.02 91.5408 146.37 91.5408 143.72 91.6Z" fill="#FFF7EB"/>
</g>
<defs>
<clipPath id="clip0_11_5">
<rect width="151.67" height="90.9728" fill="white" transform="translate(0 0.61731)"/>
</clipPath>
</defs>
</svg>
