<svg width="138" height="138" viewBox="0 0 138 138" fill="none" xmlns="http://www.w3.org/2000/svg">
<g clip-path="url(#clip0_11_17)">
<path fill-rule="evenodd" clip-rule="evenodd" d="M15.4857 36.2421C11.3718 36.2421 0 33.7725 0 22.1601C0 10.5477 10.8263 8.04163 15.1902 8.04163C19.5541 8.04163 24.2134 8.81384 26.9181 10.5404V15.9751C26.9267 16.0407 26.9207 16.1073 26.9004 16.1705C26.8802 16.2337 26.8462 16.2921 26.8007 16.3417C26.7552 16.3913 26.6992 16.431 26.6365 16.4582C26.5738 16.4854 26.5058 16.4995 26.437 16.4995C26.3683 16.4995 26.3003 16.4854 26.2376 16.4582C26.1749 16.431 26.1189 16.3913 26.0734 16.3417C26.0279 16.2921 25.9939 16.2337 25.9737 16.1705C25.9534 16.1073 25.9474 16.0407 25.956 15.9751C25.8953 15.0499 23.3194 9.49136 16.8645 9.6152C9.92477 9.74633 5.23512 14.9916 5.23512 21.9051C5.23512 28.8186 9.78084 34.756 16.6676 34.5666C18.9026 34.5083 21.2133 33.838 22.3573 32.9274V26.9099C22.3573 25.1834 21.2663 24.5641 20.1753 24.5641C20.0387 24.5641 19.9077 24.512 19.811 24.4191C19.7144 24.3262 19.6602 24.2002 19.6602 24.0688C19.6602 23.9374 19.7144 23.8114 19.811 23.7185C19.9077 23.6256 20.0387 23.5734 20.1753 23.5734H29.6077C30.3123 23.5734 30.3123 24.6224 29.6077 24.5641C28.5167 24.5641 27.4257 25.1834 27.4257 26.9099V33.0877C25.115 35.0619 19.5844 36.2348 15.4781 36.2348L15.4857 36.2421Z" fill="#FFF7EB"/>
<path fill-rule="evenodd" clip-rule="evenodd" d="M79.4816 36.2421C83.5955 36.2421 88.9291 34.1441 91.755 32.1625V27.063C91.755 26.3855 91.308 26.2616 91.0505 27.1212C90.7929 27.9809 87.5199 34.5374 80.6408 34.7196C73.7616 34.9017 69.2765 28.7895 69.2765 21.8687C69.2765 14.9479 73.9662 9.52052 80.9059 9.38939C87.3305 9.26554 89.8989 15.0135 89.9974 15.9459C89.9974 16.5652 90.702 16.6235 90.702 15.9459V10.5113C88.0048 8.78473 83.5728 7.72839 79.2013 7.72839C74.8299 7.72839 64.049 10.5113 64.049 22.1237C64.049 33.7361 75.4132 36.2057 79.5347 36.2057L79.4816 36.2421Z" fill="#FFF7EB"/>
<path fill-rule="evenodd" clip-rule="evenodd" d="M137.235 34.6321C136.144 34.6321 135.053 34.0129 135.053 32.2863V11.7133C135.053 9.98675 136.144 9.36752 137.235 9.36752C138.326 9.36752 138.265 8.44232 137.235 8.44232H127.787C126.757 8.44232 126.757 9.36752 127.787 9.36752C128.818 9.36752 129.969 9.98675 129.969 11.7133V32.2863C129.969 34.0129 128.878 34.6321 127.787 34.6321C126.696 34.6321 126.757 35.8706 127.787 35.8706H137.227C138.258 35.8706 138.258 34.6321 137.227 34.6321H137.235Z" fill="#FFF7EB"/>
<path fill-rule="evenodd" clip-rule="evenodd" d="M33.0548 9.36752C34.1458 9.36752 35.2368 9.98675 35.2368 11.7133V25.2125C35.2368 31.6744 40.4946 36.4242 47.2147 36.4242C53.9348 36.4242 59.3896 31.6744 59.3896 25.2125L59.5184 11.7133C59.5184 9.98675 60.6094 9.36752 61.7003 9.36752C62.7913 9.36752 62.7307 8.44232 61.7003 8.44232H55.147C54.1166 8.44232 54.1166 9.36752 55.147 9.36752C56.1773 9.36752 57.3289 9.98675 57.3289 11.7133L57.5638 25.8609C57.5638 30.4213 53.7226 35.0401 48.98 35.0401C46.7006 35.0401 44.5141 34.1714 42.8996 32.6243C41.285 31.0772 40.3739 28.9779 40.3659 26.7861V11.7206C40.3659 9.99404 41.4568 9.37481 42.5478 9.37481C43.6387 9.37481 43.5781 8.44959 42.5478 8.44959H33.0548C32.0245 8.44959 32.0245 9.37481 33.0548 9.37481V9.36752Z" fill="#FFF7EB"/>
<path fill-rule="evenodd" clip-rule="evenodd" d="M128.572 90.0905C128.565 96.8648 126.763 103.526 123.336 109.444C119.908 115.363 114.968 120.343 108.983 123.916C102.997 127.489 96.1632 129.535 89.1264 129.863C82.0897 130.19 75.0823 128.788 68.7659 125.787C62.45 128.786 55.4433 130.186 48.4079 129.856C41.3725 129.526 34.5409 127.477 28.5585 123.901C22.5761 120.326 17.6406 115.343 14.2183 109.423C10.796 103.503 8.99998 96.8418 8.99998 90.0687C8.99998 83.2956 10.796 76.6344 14.2183 70.7145C17.6406 64.7946 22.5761 59.8115 28.5585 56.2362C34.5409 52.6608 41.3725 50.6113 48.4079 50.2813C55.4433 49.9512 62.45 51.3516 68.7659 54.35C75.0832 51.3545 82.0899 49.9555 89.1253 50.2849C96.1606 50.6144 102.993 52.6615 108.978 56.2332C114.962 59.8049 119.902 64.7834 123.332 70.6994C126.761 76.6154 128.568 83.2738 128.58 90.0468L128.572 90.0905ZM120.398 90.0905C120.395 85.0654 119.161 80.1116 116.797 75.6302C114.432 71.1489 111.003 67.2662 106.787 64.2965C102.572 61.3268 97.6877 59.3536 92.5313 58.5368C87.3748 57.7201 82.0908 58.0827 77.1072 59.5953C83.5251 64.7535 88.1444 71.6794 90.3428 79.4398H81.7666C79.3539 72.8816 74.7881 67.2562 68.7583 63.4126C62.737 67.2597 58.1794 72.8848 55.7727 79.4398H47.1965C49.4305 71.6839 54.0619 64.7635 60.4775 59.5953C57.2126 58.6203 53.8124 58.129 50.3937 58.1382C45.5968 58.1295 40.8547 59.1188 36.4929 61.0383C32.1311 62.9578 28.2528 65.762 25.1242 69.2586C21.9957 72.7551 19.6909 76.8611 18.368 81.2948C17.0452 85.7285 16.7356 90.385 17.4606 94.9446C18.1855 99.5042 19.9279 103.859 22.5679 107.71C25.208 111.561 28.6834 114.818 32.7555 117.255C36.8276 119.693 41.4001 121.255 46.1591 121.834C50.9181 122.413 55.751 121.994 60.326 120.608C56.1427 117.21 52.7052 113.045 50.2142 108.355C47.7232 103.666 46.2286 98.5467 45.8176 93.296H65.5157V101.12L55.9243 101.251C58.3854 107.596 62.8729 113.028 68.7431 116.768C74.6167 113.03 79.0989 107.59 81.5393 101.237L71.9782 101.12V93.296H91.6762C91.2406 98.5485 89.7212 103.665 87.2068 108.347C84.6924 113.028 81.2333 117.182 77.0315 120.564C82.0164 122.086 87.3042 122.456 92.4659 121.645C97.6276 120.834 102.518 118.865 106.74 115.896C110.962 112.928 114.396 109.045 116.766 104.561C119.135 100.077 120.371 95.1197 120.375 90.0905H120.398Z" fill="#FFF7EB"/>
<path fill-rule="evenodd" clip-rule="evenodd" d="M111.362 36.2421C115.476 36.2421 120.81 34.1441 123.636 32.1625V27.063C123.636 26.3855 123.189 26.2616 122.931 27.1212C122.673 27.9809 119.4 34.5374 112.521 34.7196C105.642 34.9017 101.157 28.7895 101.157 21.8687C101.157 14.9479 105.847 9.52052 112.786 9.38939C119.211 9.26554 121.779 15.0135 121.878 15.9459C121.878 16.5652 122.582 16.6235 122.582 15.9459V10.5113C119.885 8.78473 115.453 7.72839 111.082 7.72839C106.71 7.72839 95.9295 10.5113 95.9295 22.1237C95.9295 33.7361 107.294 36.2057 111.415 36.2057L111.362 36.2421Z" fill="#FFF7EB"/>
</g>
<defs>
<clipPath id="clip0_11_17">
<rect width="138" height="136.296" fill="white" transform="translate(0 0.814819)"/>
</clipPath>
</defs>
</svg>
