<svg width="59" height="44" viewBox="0 0 59 44" fill="none" xmlns="http://www.w3.org/2000/svg">
<path fill-rule="evenodd" clip-rule="evenodd" d="M58.9963 22.0104C58.993 25.7515 58.1038 29.4299 56.4126 32.6983C54.7214 35.9667 52.2842 38.7173 49.3309 40.6902C46.3776 42.6632 43.0058 43.7934 39.5339 43.9743C36.0621 44.1551 32.6046 43.3805 29.4882 41.7237C26.3719 43.3795 22.9149 44.1529 19.4436 43.9706C15.9724 43.7884 12.6017 42.6565 9.65005 40.6821C6.69837 38.7076 4.26321 35.9558 2.57467 32.6866C0.886136 29.4173 0 25.7387 0 21.9984C0 18.258 0.886136 14.5794 2.57467 11.3102C4.26321 8.04097 6.69837 5.28912 9.65005 3.31467C12.6017 1.34022 15.9724 0.208392 19.4436 0.026135C22.9149 -0.156122 26.3719 0.617203 29.4882 2.27305C32.6051 0.618791 36.0622 -0.153791 39.5334 0.0281608C43.0046 0.210112 46.3755 1.34061 49.3284 3.31303C52.2812 5.28546 54.7186 8.03481 56.4107 11.3018C58.1029 14.5689 58.994 18.2459 59 21.9863L58.9963 22.0104ZM54.9629 22.0104C54.9616 19.2354 54.3529 16.4996 53.1862 14.0249C52.0196 11.5501 50.3277 9.40589 48.2477 7.7659C46.1677 6.1259 43.758 5.03625 41.2139 4.5852C38.6697 4.13415 36.0626 4.33439 33.6037 5.1697C36.7703 8.0183 39.0494 11.8431 40.1341 16.1286H35.9026C34.7123 12.507 32.4595 9.40038 29.4844 7.2778C26.5135 9.40232 24.2649 12.5087 23.0774 16.1286H18.846C19.9482 11.8455 22.2333 8.02381 25.3987 5.1697C23.7879 4.6313 22.1102 4.35999 20.4234 4.36507C18.0567 4.36023 15.7169 4.90658 13.5648 5.96661C11.4128 7.02664 9.49923 8.57525 7.95561 10.5062C6.41199 12.4371 5.27482 14.7046 4.62214 17.1531C3.96946 19.6016 3.81672 22.1731 4.17441 24.6911C4.53209 27.2091 5.39175 29.6139 6.69436 31.7407C7.99696 33.8674 9.71169 35.6657 11.7209 37.012C13.73 38.3583 15.986 39.2209 18.3341 39.5404C20.6822 39.86 23.0667 39.629 25.324 38.8633C23.2599 36.9868 21.5639 34.6867 20.3348 32.0971C19.1058 29.5075 18.3684 26.6803 18.1656 23.7806H27.8845V28.1014L23.1522 28.1738C24.3665 31.6776 26.5806 34.6774 29.4769 36.7431C32.3749 34.6788 34.5864 31.6744 35.7905 28.1658L31.0731 28.1014V23.7806H40.792C40.5771 26.6813 39.8274 29.5068 38.5868 32.0922C37.3462 34.6777 35.6395 36.9713 33.5664 38.8391C36.0259 39.6795 38.6349 39.8841 41.1816 39.4362C43.7284 38.9884 46.1411 37.9007 48.2242 36.2615C50.3073 34.6222 52.0021 32.4776 53.1709 30.0015C54.3398 27.5255 54.9499 24.7877 54.9517 22.0104H54.9629Z" fill="#323232"/>
</svg>
